<svg id="visual" viewBox="0 0 900 600" width="900" height="600" xmlns="http://www.w3.org/2000/svg" xmlns:xlink="http://www.w3.org/1999/xlink" version="1.1"><rect x="0" y="0" width="900" height="600" fill="#fff"></rect><path d="M0 496L18.8 506.2C37.7 516.3 75.3 536.7 112.8 530.2C150.3 523.7 187.7 490.3 225.2 488.2C262.7 486 300.3 515 337.8 528.7C375.3 542.3 412.7 540.7 450.2 541.3C487.7 542 525.3 545 562.8 537.5C600.3 530 637.7 512 675.2 510.3C712.7 508.7 750.3 523.3 787.8 516.8C825.3 510.3 862.7 482.7 881.3 468.8L900 455L900 601L881.3 601C862.7 601 825.3 601 787.8 601C750.3 601 712.7 601 675.2 601C637.7 601 600.3 601 562.8 601C525.3 601 487.7 601 450.2 601C412.7 601 375.3 601 337.8 601C300.3 601 262.7 601 225.2 601C187.7 601 150.3 601 112.8 601C75.3 601 37.7 601 18.8 601L0 601Z" fill="#088178" stroke-linecap="round" stroke-linejoin="miter"></path></svg>